<svg xmlns="http://www.w3.org/2000/svg" xmlns:xlink="http://www.w3.org/1999/xlink" width="500" zoomAndPan="magnify" viewBox="0 0 375 374.999991" height="500" preserveAspectRatio="xMidYMid meet" version="1.0"><defs><clipPath id="a2881e1700"><path d="M 58.699219 117.535156 L 315.949219 117.535156 L 315.949219 257.222656 L 58.699219 257.222656 Z M 58.699219 117.535156 " clip-rule="nonzero"/></clipPath></defs><g clip-path="url(#a2881e1700)"><path fill="#ffffff" d="M 138.007812 179.921875 L 153.238281 139.351562 L 221.253906 139.351562 L 236.460938 179.921875 Z M 316.300781 179.921875 L 258.300781 179.921875 L 243.070312 139.351562 L 272.59375 139.351562 L 272.59375 117.511719 L 102.378906 117.511719 L 102.378906 139.351562 L 131.375 139.351562 L 116.144531 179.921875 L 58.699219 179.921875 L 58.699219 201.765625 L 107.957031 201.765625 L 87.125 257.222656 L 108.964844 257.222656 L 129.796875 201.765625 L 244.671875 201.765625 L 265.503906 257.222656 L 287.347656 257.222656 L 266.511719 201.765625 L 316.300781 201.765625 L 316.300781 179.921875 " fill-opacity="1" fill-rule="nonzero"/></g></svg>