<svg xmlns="http://www.w3.org/2000/svg" xmlns:xlink="http://www.w3.org/1999/xlink" width="500" zoomAndPan="magnify" viewBox="0 0 375 374.999991" height="500" preserveAspectRatio="xMidYMid meet" version="1.0"><defs><clipPath id="c29db4134d"><path d="M 40.058594 40.058594 L 334.808594 40.058594 L 334.808594 334.808594 L 40.058594 334.808594 Z M 40.058594 40.058594 " clip-rule="nonzero"/></clipPath><clipPath id="ed115134a3"><path d="M 91.960938 230.980469 L 283.035156 230.980469 L 283.035156 334.589844 L 91.960938 334.589844 Z M 91.960938 230.980469 " clip-rule="nonzero"/></clipPath></defs><g clip-path="url(#c29db4134d)"><path fill="#ffffff" d="M 66.863281 162.261719 L 66.863281 148.882812 L 308.128906 148.882812 L 308.128906 162.261719 Z M 291.558594 122.074219 L 83.433594 122.074219 L 187.496094 70.03125 Z M 187.496094 40.058594 L 40.058594 113.777344 L 40.058594 334.9375 L 66.863281 334.9375 L 66.863281 189.09375 L 308.128906 189.09375 L 308.128906 334.9375 L 334.9375 334.9375 L 334.9375 113.777344 L 187.496094 40.058594 " fill-opacity="1" fill-rule="nonzero"/></g><g clip-path="url(#ed115134a3)"><path fill="#ffffff" d="M 150.789062 277.253906 L 162.089844 247.164062 L 212.535156 247.164062 L 223.816406 277.253906 Z M 283.035156 277.253906 L 240.015625 277.253906 L 228.71875 247.164062 L 250.621094 247.164062 L 250.621094 230.960938 L 124.363281 230.960938 L 124.363281 247.164062 L 145.871094 247.164062 L 134.574219 277.253906 L 91.960938 277.253906 L 91.960938 293.453125 L 128.5 293.453125 L 113.046875 334.589844 L 129.246094 334.589844 L 144.699219 293.453125 L 229.90625 293.453125 L 245.359375 334.589844 L 261.5625 334.589844 L 246.105469 293.453125 L 283.035156 293.453125 L 283.035156 277.253906 " fill-opacity="1" fill-rule="nonzero"/></g></svg>