<svg xmlns="http://www.w3.org/2000/svg" xmlns:xlink="http://www.w3.org/1999/xlink" width="500" zoomAndPan="magnify" viewBox="0 0 375 165.000002" height="220" preserveAspectRatio="xMidYMid meet" version="1.0"><defs><g/><clipPath id="0cb3e8e23c"><path d="M 88.320312 37.714844 L 293.363281 37.714844 L 293.363281 103.359375 L 88.320312 103.359375 Z M 88.320312 37.714844 " clip-rule="nonzero"/></clipPath><clipPath id="af1f2dfaef"><path d="M 207.953125 25.847656 L 240.132812 25.847656 L 240.132812 91.660156 L 207.953125 91.660156 Z M 207.953125 25.847656 " clip-rule="nonzero"/></clipPath></defs><g clip-path="url(#0cb3e8e23c)"><path fill="#ff7070" d="M 151.015625 57.265625 C 151.015625 57.265625 151.507812 51.441406 163.195312 51.6875 C 174.882812 51.933594 210.398438 48.777344 220.855469 47.546875 C 231.3125 46.316406 259.28125 40.738281 264.652344 41.96875 C 270.023438 43.199219 273.632812 39.792969 278.269531 39.792969 C 281.21875 39.792969 287.699219 38.605469 291.964844 37.742188 C 293.113281 37.5 293.851562 38.933594 292.988281 39.753906 C 288.808594 43.691406 281.507812 50.660156 278.964844 53.207031 C 275.3125 56.855469 271.910156 57.59375 267.769531 57.101562 C 263.625 56.609375 260.46875 64.15625 256.820312 69.527344 C 253.167969 74.855469 252.433594 75.59375 244.1875 75.351562 C 235.945312 75.105469 226.675781 94.828125 221.058594 95.035156 C 215.441406 95.238281 180.460938 98.109375 170.945312 99.832031 C 161.429688 101.554688 151.710938 97.660156 144.660156 99.09375 C 137.605469 100.53125 121.324219 103.480469 112.835938 103.238281 C 106.96875 103.070312 96.59375 103.238281 90.730469 103.359375 C 88.84375 103.398438 87.695312 101.308594 88.679688 99.75 L 94.957031 89.910156 C 95.160156 89.582031 95.28125 89.171875 95.324219 88.761719 L 96.429688 63.949219 C 96.472656 62.761719 97.414062 61.816406 98.5625 61.695312 L 151.015625 57.265625 " fill-opacity="1" fill-rule="nonzero"/></g><g fill="#4743af" fill-opacity="0.302"><g transform="translate(126.320983, 79.416285)"><g><path d="M 14.183594 -15.054688 L 11.917969 -14.824219 C 11.589844 -14.789062 11.449219 -14.65625 11.246094 -14.347656 C 11.066406 -14.035156 7.730469 -8.3125 7.730469 -8.3125 C 7.730469 -8.3125 3.320312 -13.238281 3.078125 -13.503906 C 2.816406 -13.769531 2.652344 -13.871094 2.324219 -13.835938 L 0.0585938 -13.601562 C -0.210938 -13.574219 -0.398438 -13.324219 -0.375 -13.074219 L 0.910156 -0.578125 C 0.9375 -0.308594 1.171875 -0.121094 1.441406 -0.148438 L 4.441406 -0.457031 C 4.710938 -0.484375 4.898438 -0.71875 4.871094 -0.988281 L 4.261719 -6.925781 C 4.261719 -6.925781 6.445312 -4.375 6.820312 -3.945312 C 7.242188 -3.425781 7.449219 -3.503906 7.601562 -3.519531 L 8.851562 -3.648438 C 9.003906 -3.664062 9.222656 -3.628906 9.53125 -4.222656 C 9.789062 -4.71875 11.410156 -7.660156 11.410156 -7.660156 L 12.019531 -1.722656 C 12.050781 -1.453125 12.300781 -1.265625 12.550781 -1.292969 L 15.570312 -1.601562 C 15.820312 -1.628906 16.027344 -1.863281 16 -2.132812 L 14.714844 -14.625 C 14.6875 -14.875 14.433594 -15.082031 14.183594 -15.054688 Z M 14.183594 -15.054688 "/></g></g></g><g fill="#4743af" fill-opacity="0.302"><g transform="translate(143.325224, 77.666988)"><g><path d="M 3.054688 -13.910156 L 0.0585938 -13.601562 C -0.210938 -13.574219 -0.402344 -13.34375 -0.375 -13.074219 L 0.910156 -0.578125 C 0.9375 -0.308594 1.171875 -0.121094 1.441406 -0.148438 L 4.441406 -0.457031 C 4.710938 -0.484375 4.898438 -0.71875 4.871094 -0.988281 L 3.585938 -13.480469 C 3.558594 -13.75 3.324219 -13.9375 3.054688 -13.910156 Z M 3.054688 -13.910156 "/></g></g></g><g fill="#4743af" fill-opacity="0.302"><g transform="translate(149.204653, 77.062146)"><g><path d="M 4.976562 -14.109375 L 0.0585938 -13.601562 C -0.210938 -13.574219 -0.402344 -13.34375 -0.375 -13.074219 L 0.910156 -0.578125 C 0.9375 -0.308594 1.171875 -0.121094 1.441406 -0.148438 L 6.207031 -0.640625 C 11.011719 -1.132812 13.949219 -3.941406 13.511719 -8.207031 C 13.195312 -11.28125 11.207031 -14.75 4.976562 -14.109375 Z M 6.328125 -3.992188 L 4.582031 -3.8125 L 3.875 -10.65625 L 5.625 -10.835938 C 8.257812 -11.105469 9.324219 -9.429688 9.496094 -7.757812 C 9.6875 -5.910156 8.789062 -4.246094 6.328125 -3.992188 Z M 6.328125 -3.992188 "/></g></g></g><g fill="#4743af" fill-opacity="0.302"><g transform="translate(164.364366, 75.502603)"><g><path d="M 4.976562 -14.109375 L 0.0585938 -13.601562 C -0.210938 -13.574219 -0.402344 -13.34375 -0.375 -13.074219 L 0.910156 -0.578125 C 0.9375 -0.308594 1.171875 -0.121094 1.441406 -0.148438 L 6.207031 -0.640625 C 11.011719 -1.132812 13.949219 -3.941406 13.511719 -8.207031 C 13.195312 -11.28125 11.207031 -14.75 4.976562 -14.109375 Z M 6.328125 -3.992188 L 4.582031 -3.8125 L 3.875 -10.65625 L 5.625 -10.835938 C 8.257812 -11.105469 9.324219 -9.429688 9.496094 -7.757812 C 9.6875 -5.910156 8.789062 -4.246094 6.328125 -3.992188 Z M 6.328125 -3.992188 "/></g></g></g><g fill="#4743af" fill-opacity="0.302"><g transform="translate(179.524079, 73.94306)"><g><path d="M 10.421875 -4.414062 L 4.582031 -3.8125 L 3.585938 -13.480469 C 3.558594 -13.75 3.324219 -13.9375 3.074219 -13.914062 L 0.0585938 -13.601562 C -0.210938 -13.574219 -0.402344 -13.34375 -0.375 -13.074219 L 0.910156 -0.578125 C 0.9375 -0.308594 1.171875 -0.121094 1.441406 -0.148438 L 10.761719 -1.105469 C 11.03125 -1.136719 11.222656 -1.367188 11.195312 -1.636719 L 10.953125 -3.980469 C 10.925781 -4.25 10.691406 -4.441406 10.421875 -4.414062 Z M 10.421875 -4.414062 "/></g></g></g><g fill="#4743af" fill-opacity="0.302"><g transform="translate(191.724862, 72.687914)"><g><path d="M 9.941406 -4.363281 L 4.582031 -3.8125 L 4.398438 -5.582031 L 8.703125 -6.023438 C 8.953125 -6.050781 9.164062 -6.285156 9.136719 -6.554688 L 8.894531 -8.898438 C 8.867188 -9.167969 8.613281 -9.355469 8.363281 -9.328125 L 4.058594 -8.886719 L 3.875 -10.65625 L 9.179688 -11.199219 C 9.429688 -11.226562 9.640625 -11.460938 9.613281 -11.730469 L 9.371094 -14.074219 C 9.34375 -14.34375 9.089844 -14.53125 8.839844 -14.507812 L 0.0585938 -13.601562 C -0.210938 -13.574219 -0.402344 -13.34375 -0.375 -13.074219 L 0.910156 -0.578125 C 0.9375 -0.308594 1.171875 -0.121094 1.441406 -0.148438 L 10.28125 -1.058594 C 10.550781 -1.085938 10.742188 -1.320312 10.714844 -1.585938 L 10.472656 -3.933594 C 10.445312 -4.203125 10.210938 -4.390625 9.941406 -4.363281 Z M 9.941406 -4.363281 "/></g></g></g><g fill="#4743af" fill-opacity="0.502"><g transform="translate(125.383903, 78.654016)"><g><path d="M 14.183594 -15.054688 L 11.917969 -14.824219 C 11.589844 -14.789062 11.449219 -14.65625 11.246094 -14.347656 C 11.066406 -14.035156 7.730469 -8.3125 7.730469 -8.3125 C 7.730469 -8.3125 3.320312 -13.238281 3.078125 -13.503906 C 2.816406 -13.769531 2.652344 -13.871094 2.324219 -13.835938 L 0.0585938 -13.601562 C -0.210938 -13.574219 -0.398438 -13.324219 -0.375 -13.074219 L 0.910156 -0.578125 C 0.9375 -0.308594 1.171875 -0.121094 1.441406 -0.148438 L 4.441406 -0.457031 C 4.710938 -0.484375 4.898438 -0.71875 4.871094 -0.988281 L 4.261719 -6.925781 C 4.261719 -6.925781 6.445312 -4.375 6.820312 -3.945312 C 7.242188 -3.425781 7.449219 -3.503906 7.601562 -3.519531 L 8.851562 -3.648438 C 9.003906 -3.664062 9.222656 -3.628906 9.53125 -4.222656 C 9.789062 -4.71875 11.410156 -7.660156 11.410156 -7.660156 L 12.019531 -1.722656 C 12.050781 -1.453125 12.300781 -1.265625 12.550781 -1.292969 L 15.570312 -1.601562 C 15.820312 -1.628906 16.027344 -1.863281 16 -2.132812 L 14.714844 -14.625 C 14.6875 -14.875 14.433594 -15.082031 14.183594 -15.054688 Z M 14.183594 -15.054688 "/></g></g></g><g fill="#4743af" fill-opacity="0.502"><g transform="translate(142.388145, 76.904719)"><g><path d="M 3.054688 -13.910156 L 0.0585938 -13.601562 C -0.210938 -13.574219 -0.402344 -13.34375 -0.375 -13.074219 L 0.910156 -0.578125 C 0.9375 -0.308594 1.171875 -0.121094 1.441406 -0.148438 L 4.441406 -0.457031 C 4.710938 -0.484375 4.898438 -0.71875 4.871094 -0.988281 L 3.585938 -13.480469 C 3.558594 -13.75 3.324219 -13.9375 3.054688 -13.910156 Z M 3.054688 -13.910156 "/></g></g></g><g fill="#4743af" fill-opacity="0.502"><g transform="translate(148.267574, 76.299877)"><g><path d="M 4.976562 -14.109375 L 0.0585938 -13.601562 C -0.210938 -13.574219 -0.402344 -13.34375 -0.375 -13.074219 L 0.910156 -0.578125 C 0.9375 -0.308594 1.171875 -0.121094 1.441406 -0.148438 L 6.207031 -0.640625 C 11.011719 -1.132812 13.949219 -3.941406 13.511719 -8.207031 C 13.195312 -11.28125 11.207031 -14.75 4.976562 -14.109375 Z M 6.328125 -3.992188 L 4.582031 -3.8125 L 3.875 -10.65625 L 5.625 -10.835938 C 8.257812 -11.105469 9.324219 -9.429688 9.496094 -7.757812 C 9.6875 -5.910156 8.789062 -4.246094 6.328125 -3.992188 Z M 6.328125 -3.992188 "/></g></g></g><g fill="#4743af" fill-opacity="0.502"><g transform="translate(163.427287, 74.740334)"><g><path d="M 4.976562 -14.109375 L 0.0585938 -13.601562 C -0.210938 -13.574219 -0.402344 -13.34375 -0.375 -13.074219 L 0.910156 -0.578125 C 0.9375 -0.308594 1.171875 -0.121094 1.441406 -0.148438 L 6.207031 -0.640625 C 11.011719 -1.132812 13.949219 -3.941406 13.511719 -8.207031 C 13.195312 -11.28125 11.207031 -14.75 4.976562 -14.109375 Z M 6.328125 -3.992188 L 4.582031 -3.8125 L 3.875 -10.65625 L 5.625 -10.835938 C 8.257812 -11.105469 9.324219 -9.429688 9.496094 -7.757812 C 9.6875 -5.910156 8.789062 -4.246094 6.328125 -3.992188 Z M 6.328125 -3.992188 "/></g></g></g><g fill="#4743af" fill-opacity="0.502"><g transform="translate(178.587, 73.180791)"><g><path d="M 10.421875 -4.414062 L 4.582031 -3.8125 L 3.585938 -13.480469 C 3.558594 -13.75 3.324219 -13.9375 3.074219 -13.914062 L 0.0585938 -13.601562 C -0.210938 -13.574219 -0.402344 -13.34375 -0.375 -13.074219 L 0.910156 -0.578125 C 0.9375 -0.308594 1.171875 -0.121094 1.441406 -0.148438 L 10.761719 -1.105469 C 11.03125 -1.136719 11.222656 -1.367188 11.195312 -1.636719 L 10.953125 -3.980469 C 10.925781 -4.25 10.691406 -4.441406 10.421875 -4.414062 Z M 10.421875 -4.414062 "/></g></g></g><g fill="#4743af" fill-opacity="0.502"><g transform="translate(190.787783, 71.925645)"><g><path d="M 9.941406 -4.363281 L 4.582031 -3.8125 L 4.398438 -5.582031 L 8.703125 -6.023438 C 8.953125 -6.050781 9.164062 -6.285156 9.136719 -6.554688 L 8.894531 -8.898438 C 8.867188 -9.167969 8.613281 -9.355469 8.363281 -9.328125 L 4.058594 -8.886719 L 3.875 -10.65625 L 9.179688 -11.199219 C 9.429688 -11.226562 9.640625 -11.460938 9.613281 -11.730469 L 9.371094 -14.074219 C 9.34375 -14.34375 9.089844 -14.53125 8.839844 -14.507812 L 0.0585938 -13.601562 C -0.210938 -13.574219 -0.402344 -13.34375 -0.375 -13.074219 L 0.910156 -0.578125 C 0.9375 -0.308594 1.171875 -0.121094 1.441406 -0.148438 L 10.28125 -1.058594 C 10.550781 -1.085938 10.742188 -1.320312 10.714844 -1.585938 L 10.472656 -3.933594 C 10.445312 -4.203125 10.210938 -4.390625 9.941406 -4.363281 Z M 9.941406 -4.363281 "/></g></g></g><g fill="#ffffff" fill-opacity="1"><g transform="translate(124.446824, 77.891759)"><g><path d="M 14.183594 -15.054688 L 11.917969 -14.824219 C 11.589844 -14.789062 11.449219 -14.65625 11.246094 -14.347656 C 11.066406 -14.035156 7.730469 -8.3125 7.730469 -8.3125 C 7.730469 -8.3125 3.320312 -13.238281 3.078125 -13.503906 C 2.816406 -13.769531 2.652344 -13.871094 2.324219 -13.835938 L 0.0585938 -13.601562 C -0.210938 -13.574219 -0.398438 -13.324219 -0.375 -13.074219 L 0.910156 -0.578125 C 0.9375 -0.308594 1.171875 -0.121094 1.441406 -0.148438 L 4.441406 -0.457031 C 4.710938 -0.484375 4.898438 -0.71875 4.871094 -0.988281 L 4.261719 -6.925781 C 4.261719 -6.925781 6.445312 -4.375 6.820312 -3.945312 C 7.242188 -3.425781 7.449219 -3.503906 7.601562 -3.519531 L 8.851562 -3.648438 C 9.003906 -3.664062 9.222656 -3.628906 9.53125 -4.222656 C 9.789062 -4.71875 11.410156 -7.660156 11.410156 -7.660156 L 12.019531 -1.722656 C 12.050781 -1.453125 12.300781 -1.265625 12.550781 -1.292969 L 15.570312 -1.601562 C 15.820312 -1.628906 16.027344 -1.863281 16 -2.132812 L 14.714844 -14.625 C 14.6875 -14.875 14.433594 -15.082031 14.183594 -15.054688 Z M 14.183594 -15.054688 "/></g></g></g><g fill="#ffffff" fill-opacity="1"><g transform="translate(141.451066, 76.142462)"><g><path d="M 3.054688 -13.910156 L 0.0585938 -13.601562 C -0.210938 -13.574219 -0.402344 -13.34375 -0.375 -13.074219 L 0.910156 -0.578125 C 0.9375 -0.308594 1.171875 -0.121094 1.441406 -0.148438 L 4.441406 -0.457031 C 4.710938 -0.484375 4.898438 -0.71875 4.871094 -0.988281 L 3.585938 -13.480469 C 3.558594 -13.75 3.324219 -13.9375 3.054688 -13.910156 Z M 3.054688 -13.910156 "/></g></g></g><g fill="#ffffff" fill-opacity="1"><g transform="translate(147.330495, 75.53762)"><g><path d="M 4.976562 -14.109375 L 0.0585938 -13.601562 C -0.210938 -13.574219 -0.402344 -13.34375 -0.375 -13.074219 L 0.910156 -0.578125 C 0.9375 -0.308594 1.171875 -0.121094 1.441406 -0.148438 L 6.207031 -0.640625 C 11.011719 -1.132812 13.949219 -3.941406 13.511719 -8.207031 C 13.195312 -11.28125 11.207031 -14.75 4.976562 -14.109375 Z M 6.328125 -3.992188 L 4.582031 -3.8125 L 3.875 -10.65625 L 5.625 -10.835938 C 8.257812 -11.105469 9.324219 -9.429688 9.496094 -7.757812 C 9.6875 -5.910156 8.789062 -4.246094 6.328125 -3.992188 Z M 6.328125 -3.992188 "/></g></g></g><g fill="#ffffff" fill-opacity="1"><g transform="translate(162.490208, 73.978077)"><g><path d="M 4.976562 -14.109375 L 0.0585938 -13.601562 C -0.210938 -13.574219 -0.402344 -13.34375 -0.375 -13.074219 L 0.910156 -0.578125 C 0.9375 -0.308594 1.171875 -0.121094 1.441406 -0.148438 L 6.207031 -0.640625 C 11.011719 -1.132812 13.949219 -3.941406 13.511719 -8.207031 C 13.195312 -11.28125 11.207031 -14.75 4.976562 -14.109375 Z M 6.328125 -3.992188 L 4.582031 -3.8125 L 3.875 -10.65625 L 5.625 -10.835938 C 8.257812 -11.105469 9.324219 -9.429688 9.496094 -7.757812 C 9.6875 -5.910156 8.789062 -4.246094 6.328125 -3.992188 Z M 6.328125 -3.992188 "/></g></g></g><g fill="#ffffff" fill-opacity="1"><g transform="translate(177.649921, 72.418534)"><g><path d="M 10.421875 -4.414062 L 4.582031 -3.8125 L 3.585938 -13.480469 C 3.558594 -13.75 3.324219 -13.9375 3.074219 -13.914062 L 0.0585938 -13.601562 C -0.210938 -13.574219 -0.402344 -13.34375 -0.375 -13.074219 L 0.910156 -0.578125 C 0.9375 -0.308594 1.171875 -0.121094 1.441406 -0.148438 L 10.761719 -1.105469 C 11.03125 -1.136719 11.222656 -1.367188 11.195312 -1.636719 L 10.953125 -3.980469 C 10.925781 -4.25 10.691406 -4.441406 10.421875 -4.414062 Z M 10.421875 -4.414062 "/></g></g></g><g fill="#ffffff" fill-opacity="1"><g transform="translate(189.850704, 71.163388)"><g><path d="M 9.941406 -4.363281 L 4.582031 -3.8125 L 4.398438 -5.582031 L 8.703125 -6.023438 C 8.953125 -6.050781 9.164062 -6.285156 9.136719 -6.554688 L 8.894531 -8.898438 C 8.867188 -9.167969 8.613281 -9.355469 8.363281 -9.328125 L 4.058594 -8.886719 L 3.875 -10.65625 L 9.179688 -11.199219 C 9.429688 -11.226562 9.640625 -11.460938 9.613281 -11.730469 L 9.371094 -14.074219 C 9.34375 -14.34375 9.089844 -14.53125 8.839844 -14.507812 L 0.0585938 -13.601562 C -0.210938 -13.574219 -0.402344 -13.34375 -0.375 -13.074219 L 0.910156 -0.578125 C 0.9375 -0.308594 1.171875 -0.121094 1.441406 -0.148438 L 10.28125 -1.058594 C 10.550781 -1.085938 10.742188 -1.320312 10.714844 -1.585938 L 10.472656 -3.933594 C 10.445312 -4.203125 10.210938 -4.390625 9.941406 -4.363281 Z M 9.941406 -4.363281 "/></g></g></g><g fill="#4743af" fill-opacity="0.302"><g transform="translate(128.040903, 96.134965)"><g><path d="M 13.203125 -14.957031 L 10.070312 -14.632812 C 9.496094 -14.574219 9.4375 -14.375 9.277344 -13.851562 C 9.175781 -13.511719 8.25 -9.296875 7.464844 -5.78125 C 5.984375 -9.066406 4.199219 -13 4.03125 -13.3125 C 3.785156 -13.792969 3.671875 -13.972656 3.113281 -13.917969 L -0.0195312 -13.59375 C -0.347656 -13.5625 -0.492188 -13.292969 -0.296875 -12.886719 C -0.0742188 -12.441406 5.511719 -1.382812 5.699219 -1.070312 C 5.886719 -0.761719 6.015625 -0.617188 6.363281 -0.65625 L 9.589844 -0.988281 C 9.9375 -1.023438 10.035156 -1.1875 10.136719 -1.527344 C 10.257812 -1.871094 13.488281 -13.878906 13.621094 -14.316406 C 13.730469 -14.757812 13.511719 -14.988281 13.203125 -14.957031 Z M 13.203125 -14.957031 "/></g></g></g><g fill="#4743af" fill-opacity="0.302"><g transform="translate(143.988386, 94.494381)"><g><path d="M 14.519531 -2.171875 C 14.304688 -2.578125 8.886719 -13.695312 8.699219 -14.007812 C 8.511719 -14.316406 8.378906 -14.457031 8.035156 -14.421875 L 4.804688 -14.089844 C 4.457031 -14.054688 4.359375 -13.890625 4.257812 -13.550781 C 4.136719 -13.207031 1.09375 -1.257812 0.96875 -0.78125 C 0.839844 -0.339844 1.058594 -0.109375 1.382812 -0.140625 L 4.496094 -0.460938 C 5.074219 -0.523438 5.152344 -0.722656 5.292969 -1.242188 C 5.320312 -1.34375 5.414062 -1.742188 5.542969 -2.375 L 9.695312 -2.804688 C 9.949219 -2.207031 10.125 -1.839844 10.171875 -1.746094 C 10.4375 -1.269531 10.53125 -1.082031 11.109375 -1.144531 L 14.242188 -1.464844 C 14.570312 -1.5 14.714844 -1.765625 14.519531 -2.171875 Z M 6.261719 -5.792969 C 6.5 -6.863281 6.734375 -7.996094 6.953125 -9.085938 C 7.40625 -8.066406 7.863281 -7.003906 8.296875 -6 Z M 6.261719 -5.792969 "/></g></g></g><g fill="#4743af" fill-opacity="0.302"><g transform="translate(159.590015, 92.889376)"><g><path d="M 10.421875 -4.414062 L 4.582031 -3.8125 L 3.585938 -13.480469 C 3.558594 -13.75 3.324219 -13.9375 3.074219 -13.914062 L 0.0585938 -13.601562 C -0.210938 -13.574219 -0.402344 -13.34375 -0.375 -13.074219 L 0.910156 -0.578125 C 0.9375 -0.308594 1.171875 -0.121094 1.441406 -0.148438 L 10.761719 -1.105469 C 11.03125 -1.136719 11.222656 -1.367188 11.195312 -1.636719 L 10.953125 -3.980469 C 10.925781 -4.25 10.691406 -4.441406 10.421875 -4.414062 Z M 10.421875 -4.414062 "/></g></g></g><g fill="#4743af" fill-opacity="0.302"><g transform="translate(171.790797, 91.63423)"><g><path d="M 10.421875 -4.414062 L 4.582031 -3.8125 L 3.585938 -13.480469 C 3.558594 -13.75 3.324219 -13.9375 3.074219 -13.914062 L 0.0585938 -13.601562 C -0.210938 -13.574219 -0.402344 -13.34375 -0.375 -13.074219 L 0.910156 -0.578125 C 0.9375 -0.308594 1.171875 -0.121094 1.441406 -0.148438 L 10.761719 -1.105469 C 11.03125 -1.136719 11.222656 -1.367188 11.195312 -1.636719 L 10.953125 -3.980469 C 10.925781 -4.25 10.691406 -4.441406 10.421875 -4.414062 Z M 10.421875 -4.414062 "/></g></g></g><g fill="#4743af" fill-opacity="0.302"><g transform="translate(183.99158, 90.379085)"><g><path d="M 9.941406 -4.363281 L 4.582031 -3.8125 L 4.398438 -5.582031 L 8.703125 -6.023438 C 8.953125 -6.050781 9.164062 -6.285156 9.136719 -6.554688 L 8.894531 -8.898438 C 8.867188 -9.167969 8.613281 -9.355469 8.363281 -9.328125 L 4.058594 -8.886719 L 3.875 -10.65625 L 9.179688 -11.199219 C 9.429688 -11.226562 9.640625 -11.460938 9.613281 -11.730469 L 9.371094 -14.074219 C 9.34375 -14.34375 9.089844 -14.53125 8.839844 -14.507812 L 0.0585938 -13.601562 C -0.210938 -13.574219 -0.402344 -13.34375 -0.375 -13.074219 L 0.910156 -0.578125 C 0.9375 -0.308594 1.171875 -0.121094 1.441406 -0.148438 L 10.28125 -1.058594 C 10.550781 -1.085938 10.742188 -1.320312 10.714844 -1.585938 L 10.472656 -3.933594 C 10.445312 -4.203125 10.210938 -4.390625 9.941406 -4.363281 Z M 9.941406 -4.363281 "/></g></g></g><g fill="#4743af" fill-opacity="0.302"><g transform="translate(195.712014, 89.173355)"><g><path d="M 12.050781 -14.835938 L 8.9375 -14.515625 C 8.359375 -14.457031 8.304688 -14.257812 8.144531 -13.734375 C 8.039062 -13.433594 6.597656 -8.933594 6.597656 -8.933594 C 6.597656 -8.933594 4.253906 -13.023438 4.089844 -13.316406 C 3.84375 -13.796875 3.730469 -13.980469 3.171875 -13.921875 L 0.0390625 -13.601562 C -0.289062 -13.566406 -0.519531 -13.347656 -0.265625 -12.949219 C -0.0078125 -12.527344 5.003906 -4.980469 5.003906 -4.980469 L 5.410156 -1.042969 C 5.4375 -0.773438 5.671875 -0.582031 5.921875 -0.609375 L 8.9375 -0.917969 C 9.207031 -0.945312 9.394531 -1.179688 9.367188 -1.449219 L 8.964844 -5.390625 C 8.964844 -5.390625 12.3125 -13.796875 12.484375 -14.222656 C 12.652344 -14.664062 12.378906 -14.871094 12.050781 -14.835938 Z M 12.050781 -14.835938 "/></g></g></g><g fill="#4743af" fill-opacity="0.502"><g transform="translate(127.103824, 95.372696)"><g><path d="M 13.203125 -14.957031 L 10.070312 -14.632812 C 9.496094 -14.574219 9.4375 -14.375 9.277344 -13.851562 C 9.175781 -13.511719 8.25 -9.296875 7.464844 -5.78125 C 5.984375 -9.066406 4.199219 -13 4.03125 -13.3125 C 3.785156 -13.792969 3.671875 -13.972656 3.113281 -13.917969 L -0.0195312 -13.59375 C -0.347656 -13.5625 -0.492188 -13.292969 -0.296875 -12.886719 C -0.0742188 -12.441406 5.511719 -1.382812 5.699219 -1.070312 C 5.886719 -0.761719 6.015625 -0.617188 6.363281 -0.65625 L 9.589844 -0.988281 C 9.9375 -1.023438 10.035156 -1.1875 10.136719 -1.527344 C 10.257812 -1.871094 13.488281 -13.878906 13.621094 -14.316406 C 13.730469 -14.757812 13.511719 -14.988281 13.203125 -14.957031 Z M 13.203125 -14.957031 "/></g></g></g><g fill="#4743af" fill-opacity="0.502"><g transform="translate(143.051307, 93.732112)"><g><path d="M 14.519531 -2.171875 C 14.304688 -2.578125 8.886719 -13.695312 8.699219 -14.007812 C 8.511719 -14.316406 8.378906 -14.457031 8.035156 -14.421875 L 4.804688 -14.089844 C 4.457031 -14.054688 4.359375 -13.890625 4.257812 -13.550781 C 4.136719 -13.207031 1.09375 -1.257812 0.96875 -0.78125 C 0.839844 -0.339844 1.058594 -0.109375 1.382812 -0.140625 L 4.496094 -0.460938 C 5.074219 -0.523438 5.152344 -0.722656 5.292969 -1.242188 C 5.320312 -1.34375 5.414062 -1.742188 5.542969 -2.375 L 9.695312 -2.804688 C 9.949219 -2.207031 10.125 -1.839844 10.171875 -1.746094 C 10.4375 -1.269531 10.53125 -1.082031 11.109375 -1.144531 L 14.242188 -1.464844 C 14.570312 -1.5 14.714844 -1.765625 14.519531 -2.171875 Z M 6.261719 -5.792969 C 6.5 -6.863281 6.734375 -7.996094 6.953125 -9.085938 C 7.40625 -8.066406 7.863281 -7.003906 8.296875 -6 Z M 6.261719 -5.792969 "/></g></g></g><g fill="#4743af" fill-opacity="0.502"><g transform="translate(158.652936, 92.127107)"><g><path d="M 10.421875 -4.414062 L 4.582031 -3.8125 L 3.585938 -13.480469 C 3.558594 -13.75 3.324219 -13.9375 3.074219 -13.914062 L 0.0585938 -13.601562 C -0.210938 -13.574219 -0.402344 -13.34375 -0.375 -13.074219 L 0.910156 -0.578125 C 0.9375 -0.308594 1.171875 -0.121094 1.441406 -0.148438 L 10.761719 -1.105469 C 11.03125 -1.136719 11.222656 -1.367188 11.195312 -1.636719 L 10.953125 -3.980469 C 10.925781 -4.25 10.691406 -4.441406 10.421875 -4.414062 Z M 10.421875 -4.414062 "/></g></g></g><g fill="#4743af" fill-opacity="0.502"><g transform="translate(170.853718, 90.871961)"><g><path d="M 10.421875 -4.414062 L 4.582031 -3.8125 L 3.585938 -13.480469 C 3.558594 -13.75 3.324219 -13.9375 3.074219 -13.914062 L 0.0585938 -13.601562 C -0.210938 -13.574219 -0.402344 -13.34375 -0.375 -13.074219 L 0.910156 -0.578125 C 0.9375 -0.308594 1.171875 -0.121094 1.441406 -0.148438 L 10.761719 -1.105469 C 11.03125 -1.136719 11.222656 -1.367188 11.195312 -1.636719 L 10.953125 -3.980469 C 10.925781 -4.25 10.691406 -4.441406 10.421875 -4.414062 Z M 10.421875 -4.414062 "/></g></g></g><g fill="#4743af" fill-opacity="0.502"><g transform="translate(183.054501, 89.616816)"><g><path d="M 9.941406 -4.363281 L 4.582031 -3.8125 L 4.398438 -5.582031 L 8.703125 -6.023438 C 8.953125 -6.050781 9.164062 -6.285156 9.136719 -6.554688 L 8.894531 -8.898438 C 8.867188 -9.167969 8.613281 -9.355469 8.363281 -9.328125 L 4.058594 -8.886719 L 3.875 -10.65625 L 9.179688 -11.199219 C 9.429688 -11.226562 9.640625 -11.460938 9.613281 -11.730469 L 9.371094 -14.074219 C 9.34375 -14.34375 9.089844 -14.53125 8.839844 -14.507812 L 0.0585938 -13.601562 C -0.210938 -13.574219 -0.402344 -13.34375 -0.375 -13.074219 L 0.910156 -0.578125 C 0.9375 -0.308594 1.171875 -0.121094 1.441406 -0.148438 L 10.28125 -1.058594 C 10.550781 -1.085938 10.742188 -1.320312 10.714844 -1.585938 L 10.472656 -3.933594 C 10.445312 -4.203125 10.210938 -4.390625 9.941406 -4.363281 Z M 9.941406 -4.363281 "/></g></g></g><g fill="#4743af" fill-opacity="0.502"><g transform="translate(194.774935, 88.411086)"><g><path d="M 12.050781 -14.835938 L 8.9375 -14.515625 C 8.359375 -14.457031 8.304688 -14.257812 8.144531 -13.734375 C 8.039062 -13.433594 6.597656 -8.933594 6.597656 -8.933594 C 6.597656 -8.933594 4.253906 -13.023438 4.089844 -13.316406 C 3.84375 -13.796875 3.730469 -13.980469 3.171875 -13.921875 L 0.0390625 -13.601562 C -0.289062 -13.566406 -0.519531 -13.347656 -0.265625 -12.949219 C -0.0078125 -12.527344 5.003906 -4.980469 5.003906 -4.980469 L 5.410156 -1.042969 C 5.4375 -0.773438 5.671875 -0.582031 5.921875 -0.609375 L 8.9375 -0.917969 C 9.207031 -0.945312 9.394531 -1.179688 9.367188 -1.449219 L 8.964844 -5.390625 C 8.964844 -5.390625 12.3125 -13.796875 12.484375 -14.222656 C 12.652344 -14.664062 12.378906 -14.871094 12.050781 -14.835938 Z M 12.050781 -14.835938 "/></g></g></g><g fill="#ffffff" fill-opacity="1"><g transform="translate(126.166745, 94.610439)"><g><path d="M 13.203125 -14.957031 L 10.070312 -14.632812 C 9.496094 -14.574219 9.4375 -14.375 9.277344 -13.851562 C 9.175781 -13.511719 8.25 -9.296875 7.464844 -5.78125 C 5.984375 -9.066406 4.199219 -13 4.03125 -13.3125 C 3.785156 -13.792969 3.671875 -13.972656 3.113281 -13.917969 L -0.0195312 -13.59375 C -0.347656 -13.5625 -0.492188 -13.292969 -0.296875 -12.886719 C -0.0742188 -12.441406 5.511719 -1.382812 5.699219 -1.070312 C 5.886719 -0.761719 6.015625 -0.617188 6.363281 -0.65625 L 9.589844 -0.988281 C 9.9375 -1.023438 10.035156 -1.1875 10.136719 -1.527344 C 10.257812 -1.871094 13.488281 -13.878906 13.621094 -14.316406 C 13.730469 -14.757812 13.511719 -14.988281 13.203125 -14.957031 Z M 13.203125 -14.957031 "/></g></g></g><g fill="#ffffff" fill-opacity="1"><g transform="translate(142.114228, 92.969855)"><g><path d="M 14.519531 -2.171875 C 14.304688 -2.578125 8.886719 -13.695312 8.699219 -14.007812 C 8.511719 -14.316406 8.378906 -14.457031 8.035156 -14.421875 L 4.804688 -14.089844 C 4.457031 -14.054688 4.359375 -13.890625 4.257812 -13.550781 C 4.136719 -13.207031 1.09375 -1.257812 0.96875 -0.78125 C 0.839844 -0.339844 1.058594 -0.109375 1.382812 -0.140625 L 4.496094 -0.460938 C 5.074219 -0.523438 5.152344 -0.722656 5.292969 -1.242188 C 5.320312 -1.34375 5.414062 -1.742188 5.542969 -2.375 L 9.695312 -2.804688 C 9.949219 -2.207031 10.125 -1.839844 10.171875 -1.746094 C 10.4375 -1.269531 10.53125 -1.082031 11.109375 -1.144531 L 14.242188 -1.464844 C 14.570312 -1.5 14.714844 -1.765625 14.519531 -2.171875 Z M 6.261719 -5.792969 C 6.5 -6.863281 6.734375 -7.996094 6.953125 -9.085938 C 7.40625 -8.066406 7.863281 -7.003906 8.296875 -6 Z M 6.261719 -5.792969 "/></g></g></g><g fill="#ffffff" fill-opacity="1"><g transform="translate(157.715857, 91.36485)"><g><path d="M 10.421875 -4.414062 L 4.582031 -3.8125 L 3.585938 -13.480469 C 3.558594 -13.75 3.324219 -13.9375 3.074219 -13.914062 L 0.0585938 -13.601562 C -0.210938 -13.574219 -0.402344 -13.34375 -0.375 -13.074219 L 0.910156 -0.578125 C 0.9375 -0.308594 1.171875 -0.121094 1.441406 -0.148438 L 10.761719 -1.105469 C 11.03125 -1.136719 11.222656 -1.367188 11.195312 -1.636719 L 10.953125 -3.980469 C 10.925781 -4.25 10.691406 -4.441406 10.421875 -4.414062 Z M 10.421875 -4.414062 "/></g></g></g><g fill="#ffffff" fill-opacity="1"><g transform="translate(169.916639, 90.109704)"><g><path d="M 10.421875 -4.414062 L 4.582031 -3.8125 L 3.585938 -13.480469 C 3.558594 -13.75 3.324219 -13.9375 3.074219 -13.914062 L 0.0585938 -13.601562 C -0.210938 -13.574219 -0.402344 -13.34375 -0.375 -13.074219 L 0.910156 -0.578125 C 0.9375 -0.308594 1.171875 -0.121094 1.441406 -0.148438 L 10.761719 -1.105469 C 11.03125 -1.136719 11.222656 -1.367188 11.195312 -1.636719 L 10.953125 -3.980469 C 10.925781 -4.25 10.691406 -4.441406 10.421875 -4.414062 Z M 10.421875 -4.414062 "/></g></g></g><g fill="#ffffff" fill-opacity="1"><g transform="translate(182.117422, 88.854559)"><g><path d="M 9.941406 -4.363281 L 4.582031 -3.8125 L 4.398438 -5.582031 L 8.703125 -6.023438 C 8.953125 -6.050781 9.164062 -6.285156 9.136719 -6.554688 L 8.894531 -8.898438 C 8.867188 -9.167969 8.613281 -9.355469 8.363281 -9.328125 L 4.058594 -8.886719 L 3.875 -10.65625 L 9.179688 -11.199219 C 9.429688 -11.226562 9.640625 -11.460938 9.613281 -11.730469 L 9.371094 -14.074219 C 9.34375 -14.34375 9.089844 -14.53125 8.839844 -14.507812 L 0.0585938 -13.601562 C -0.210938 -13.574219 -0.402344 -13.34375 -0.375 -13.074219 L 0.910156 -0.578125 C 0.9375 -0.308594 1.171875 -0.121094 1.441406 -0.148438 L 10.28125 -1.058594 C 10.550781 -1.085938 10.742188 -1.320312 10.714844 -1.585938 L 10.472656 -3.933594 C 10.445312 -4.203125 10.210938 -4.390625 9.941406 -4.363281 Z M 9.941406 -4.363281 "/></g></g></g><g fill="#ffffff" fill-opacity="1"><g transform="translate(193.837856, 87.648829)"><g><path d="M 12.050781 -14.835938 L 8.9375 -14.515625 C 8.359375 -14.457031 8.304688 -14.257812 8.144531 -13.734375 C 8.039062 -13.433594 6.597656 -8.933594 6.597656 -8.933594 C 6.597656 -8.933594 4.253906 -13.023438 4.089844 -13.316406 C 3.84375 -13.796875 3.730469 -13.980469 3.171875 -13.921875 L 0.0390625 -13.601562 C -0.289062 -13.566406 -0.519531 -13.347656 -0.265625 -12.949219 C -0.0078125 -12.527344 5.003906 -4.980469 5.003906 -4.980469 L 5.410156 -1.042969 C 5.4375 -0.773438 5.671875 -0.582031 5.921875 -0.609375 L 8.9375 -0.917969 C 9.207031 -0.945312 9.394531 -1.179688 9.367188 -1.449219 L 8.964844 -5.390625 C 8.964844 -5.390625 12.3125 -13.796875 12.484375 -14.222656 C 12.652344 -14.664062 12.378906 -14.871094 12.050781 -14.835938 Z M 12.050781 -14.835938 "/></g></g></g><g clip-path="url(#af1f2dfaef)"><path fill="#1a64c6" d="M 222.238281 41.652344 C 220.261719 41.640625 218.292969 41.382812 216.375 40.886719 L 216.375 41.652344 L 213.316406 41.652344 L 213.316406 26.355469 C 213.316406 26.074219 214 25.847656 214.847656 25.847656 C 215.691406 25.847656 216.375 26.074219 216.375 26.355469 L 216.375 26.867188 C 218.1875 27.046875 219.980469 27.386719 221.730469 27.886719 C 223.566406 28.398438 226.128906 29.476562 228.613281 30.6875 C 231.550781 32.128906 233.875 33.464844 240.085938 33.492188 C 235.605469 38.679688 229.089844 41.65625 222.238281 41.652344 Z M 213.828125 43.179688 L 215.867188 43.179688 L 215.867188 91.589844 C 215.535156 91.609375 215.191406 91.617188 214.847656 91.617188 C 211.046875 91.617188 207.964844 90.589844 207.964844 89.320312 C 207.964844 88.171875 210.507812 87.21875 213.828125 87.054688 Z M 221.730469 89.320312 C 221.730469 90.351562 219.691406 91.222656 216.886719 91.515625 L 216.886719 87.132812 C 219.691406 87.421875 221.730469 88.292969 221.730469 89.320312 Z M 221.730469 89.320312 " fill-opacity="1" fill-rule="evenodd"/></g><g fill="#1a64c6" fill-opacity="1"><g transform="translate(26.329227, 144.811493)"><g><path d="M 58.578125 -50.625 L 50.046875 -50.625 C 48.816406 -50.625 48.238281 -50.191406 47.371094 -49.105469 C 46.574219 -48.019531 31.964844 -27.988281 31.964844 -27.988281 C 31.964844 -27.988281 17.429688 -48.019531 16.632812 -49.105469 C 15.765625 -50.191406 15.1875 -50.625 13.957031 -50.625 L 5.425781 -50.625 C 4.410156 -50.625 3.617188 -49.753906 3.617188 -48.816406 L 3.617188 -1.808594 C 3.617188 -0.796875 4.410156 0 5.425781 0 L 16.707031 0 C 17.71875 0 18.515625 -0.796875 18.515625 -1.808594 L 18.515625 -24.15625 C 18.515625 -24.15625 25.671875 -13.8125 26.902344 -12.078125 C 28.277344 -9.980469 29.074219 -10.195312 29.652344 -10.195312 L 34.351562 -10.195312 C 34.929688 -10.195312 35.726562 -9.980469 37.101562 -12.078125 C 38.257812 -13.8125 45.417969 -24.15625 45.417969 -24.15625 L 45.417969 -1.808594 C 45.417969 -0.796875 46.285156 0 47.226562 0 L 58.578125 0 C 59.519531 0 60.386719 -0.796875 60.386719 -1.808594 L 60.386719 -48.816406 C 60.386719 -49.753906 59.519531 -50.625 58.578125 -50.625 Z M 58.578125 -50.625 "/></g></g></g><g fill="#1a64c6" fill-opacity="1"><g transform="translate(84.90568, 144.811493)"><g><path d="M 54.890625 -2.53125 C 54.238281 -4.121094 38.328125 -47.585938 37.75 -48.816406 C 37.171875 -50.046875 36.738281 -50.625 35.4375 -50.625 L 23.285156 -50.625 C 21.984375 -50.625 21.550781 -50.046875 21.046875 -48.816406 C 20.464844 -47.585938 4.554688 -4.265625 3.90625 -2.53125 C 3.253906 -0.941406 3.976562 0 5.207031 0 L 16.921875 0 C 19.09375 0 19.453125 -0.722656 20.175781 -2.601562 C 20.320312 -2.964844 20.828125 -4.410156 21.550781 -6.726562 L 37.171875 -6.726562 C 37.894531 -4.410156 38.402344 -2.964844 38.546875 -2.601562 C 39.339844 -0.722656 39.632812 0 41.800781 0 L 53.589844 0 C 54.816406 0 55.46875 -0.941406 54.890625 -2.53125 Z M 25.527344 -19.164062 C 26.832031 -23.070312 28.132812 -27.191406 29.363281 -31.167969 C 30.664062 -27.191406 31.964844 -23.070312 33.195312 -19.164062 Z M 25.527344 -19.164062 "/></g></g></g><g fill="#1a64c6" fill-opacity="1"><g transform="translate(138.202976, 144.811493)"><g><path d="M 29.652344 -28.132812 C 21.769531 -33.773438 19.164062 -35.726562 20.105469 -38.183594 C 20.464844 -39.125 22.058594 -39.703125 23.429688 -39.703125 C 26.976562 -39.703125 30.011719 -38.617188 32.398438 -37.75 C 33.773438 -37.246094 34.28125 -37.96875 34.496094 -38.835938 C 34.640625 -39.703125 35.941406 -46.355469 36.085938 -47.226562 C 36.304688 -48.238281 35.726562 -49.03125 34.640625 -49.320312 C 32.183594 -50.191406 27.121094 -51.492188 21.984375 -51.492188 C 16.199219 -51.492188 5.351562 -50.625 4.050781 -39.847656 C 2.964844 -31.167969 8.390625 -25.382812 14.535156 -21.191406 C 20.394531 -17.140625 22.417969 -16.128906 22.417969 -14.03125 C 22.347656 -11.933594 19.671875 -10.992188 16.273438 -11.136719 C 13.597656 -11.355469 10.339844 -12.871094 7.59375 -14.101562 C 6.796875 -14.464844 6.074219 -13.886719 5.929688 -13.453125 C 5.785156 -12.945312 3.976562 -6.292969 3.761719 -5.28125 C 3.472656 -4.195312 3.6875 -3.617188 4.339844 -3.183594 C 6.148438 -2.023438 10.921875 0.867188 18.660156 0.867188 C 30.808594 0.867188 36.304688 -4.195312 37.824219 -10.125 C 39.414062 -16.34375 37.535156 -22.5625 29.652344 -28.132812 Z M 29.652344 -28.132812 "/></g></g></g><g fill="#1a64c6" fill-opacity="1"><g transform="translate(174.795014, 144.811493)"><g><path d="M 45.632812 -50.625 L 5.425781 -50.625 C 4.410156 -50.625 3.617188 -49.753906 3.617188 -48.816406 L 3.617188 -39.992188 C 3.617188 -38.980469 4.410156 -38.183594 5.425781 -38.183594 L 18.078125 -38.183594 L 18.078125 -1.808594 C 18.078125 -0.796875 18.875 0 19.886719 0 L 31.167969 0 C 32.183594 0 32.976562 -0.796875 32.976562 -1.808594 L 32.976562 -38.183594 L 45.632812 -38.183594 C 46.644531 -38.183594 47.441406 -38.980469 47.441406 -39.992188 L 47.441406 -48.816406 C 47.441406 -49.753906 46.644531 -50.625 45.632812 -50.625 Z M 45.632812 -50.625 "/></g></g></g><g fill="#1a64c6" fill-opacity="1"><g transform="translate(220.426694, 144.811493)"><g><path d="M 38.691406 -12.4375 L 18.515625 -12.4375 L 18.515625 -19.09375 L 34.714844 -19.09375 C 35.652344 -19.09375 36.519531 -19.886719 36.519531 -20.898438 L 36.519531 -29.722656 C 36.519531 -30.734375 35.652344 -31.53125 34.714844 -31.53125 L 18.515625 -31.53125 L 18.515625 -38.183594 L 38.472656 -38.183594 C 39.414062 -38.183594 40.28125 -38.980469 40.28125 -39.992188 L 40.28125 -48.816406 C 40.28125 -49.828125 39.414062 -50.625 38.472656 -50.625 L 5.425781 -50.625 C 4.410156 -50.625 3.617188 -49.828125 3.617188 -48.816406 L 3.617188 -1.808594 C 3.617188 -0.796875 4.410156 0 5.425781 0 L 38.691406 0 C 39.703125 0 40.5 -0.796875 40.5 -1.808594 L 40.5 -10.632812 C 40.5 -11.644531 39.703125 -12.4375 38.691406 -12.4375 Z M 38.691406 -12.4375 "/></g></g></g><g fill="#1a64c6" fill-opacity="1"><g transform="translate(259.115919, 144.811493)"><g><path d="M 46.789062 -2.386719 C 46.210938 -3.253906 40.859375 -12.582031 37.390625 -18.441406 C 42.164062 -21.40625 44.621094 -26.613281 44.621094 -32.90625 C 44.621094 -43.679688 37.605469 -50.625 25.816406 -50.625 L 5.425781 -50.625 C 4.410156 -50.625 3.617188 -49.828125 3.617188 -48.816406 L 3.617188 -1.808594 C 3.617188 -0.796875 4.410156 0 5.425781 0 L 16.707031 0 C 17.71875 0 18.515625 -0.796875 18.515625 -1.808594 L 18.515625 -15.476562 L 22.417969 -15.476562 C 25.671875 -9.546875 29.652344 -2.3125 29.941406 -1.808594 C 30.445312 -0.941406 31.386719 0 32.6875 0 L 45.488281 0 C 47.226562 0 47.441406 -1.230469 46.789062 -2.386719 Z M 31.242188 -32.976562 C 31.242188 -30.734375 29.363281 -27.480469 25.527344 -27.480469 L 18.515625 -27.480469 L 18.515625 -38.617188 L 25.382812 -38.617188 C 29.507812 -38.617188 31.242188 -35.148438 31.242188 -32.976562 Z M 31.242188 -32.976562 "/></g></g></g><g fill="#1a64c6" fill-opacity="1"><g transform="translate(304.458319, 144.811493)"><g><path d="M 29.652344 -28.132812 C 21.769531 -33.773438 19.164062 -35.726562 20.105469 -38.183594 C 20.464844 -39.125 22.058594 -39.703125 23.429688 -39.703125 C 26.976562 -39.703125 30.011719 -38.617188 32.398438 -37.75 C 33.773438 -37.246094 34.28125 -37.96875 34.496094 -38.835938 C 34.640625 -39.703125 35.941406 -46.355469 36.085938 -47.226562 C 36.304688 -48.238281 35.726562 -49.03125 34.640625 -49.320312 C 32.183594 -50.191406 27.121094 -51.492188 21.984375 -51.492188 C 16.199219 -51.492188 5.351562 -50.625 4.050781 -39.847656 C 2.964844 -31.167969 8.390625 -25.382812 14.535156 -21.191406 C 20.394531 -17.140625 22.417969 -16.128906 22.417969 -14.03125 C 22.347656 -11.933594 19.671875 -10.992188 16.273438 -11.136719 C 13.597656 -11.355469 10.339844 -12.871094 7.59375 -14.101562 C 6.796875 -14.464844 6.074219 -13.886719 5.929688 -13.453125 C 5.785156 -12.945312 3.976562 -6.292969 3.761719 -5.28125 C 3.472656 -4.195312 3.6875 -3.617188 4.339844 -3.183594 C 6.148438 -2.023438 10.921875 0.867188 18.660156 0.867188 C 30.808594 0.867188 36.304688 -4.195312 37.824219 -10.125 C 39.414062 -16.34375 37.535156 -22.5625 29.652344 -28.132812 Z M 29.652344 -28.132812 "/></g></g></g></svg>